mtllib M2Spoon.mtl

v 0.036609 -5.579596 -0.976287
v 0.762714 -5.178036 -0.932768
v 0.867110 -5.263658 -0.799002
v 0.036609 -5.718632 -0.799002
v 0.899570 -5.263658 0.118215
v 0.036609 -5.718632 0.118215
v 0.800919 -5.178036 0.260873
v 0.036609 -5.579596 0.260873
v 0.036609 -5.579596 0.260873
v 0.800919 -5.178036 0.260873
v 0.552312 5.980111 0.193876
v 0.036609 5.980113 0.193876
v 0.431731 14.299864 0.266038
v 0.036609 14.299864 0.266038
v 0.036609 14.299864 0.266038
v 0.431731 14.299864 0.266038
v 0.456286 14.962413 0.260873
v 0.036609 14.987196 0.260873
v 0.036609 14.987196 0.260873
v 0.456286 14.962413 0.260873
v 0.921047 15.929801 0.195791
v 0.036609 15.655808 0.071893
v 0.800919 -5.178036 0.260873
v 0.899570 -5.263658 0.118215
v 0.618001 5.980111 0.073147
v 0.552312 5.980111 0.193876
v 0.867110 -5.263658 -0.799002
v 0.596387 5.980111 -0.405510
v 0.762714 -5.178036 -0.932768
v 0.596387 5.980111 -0.555543
v 0.481519 14.299864 0.138986
v 0.431731 14.299864 0.266038
v 0.465137 14.299864 -0.093295
v 0.417306 14.299864 -0.195361
v 0.481799 14.962413 0.179388
v 0.456286 14.962413 0.260873
v 0.438298 14.962413 -0.170116
v 0.456286 14.962413 0.260873
v 0.481799 14.962413 0.179388
v 0.921047 15.929801 0.195791
v 0.438298 14.962413 -0.170116
v 0.667918 16.048386 -0.241171
v 0.036609 -5.579596 -0.976287
v 0.036609 5.980113 -0.555543
v 0.036609 14.299864 -0.195361
v 0.036609 14.987196 -0.270831
v 0.036609 14.987196 -0.270831
v 0.036609 15.645007 -0.333026
v 0.907663 16.120762 0.137600
v 1.095714 17.557404 -0.297722
v 0.036609 17.441706 -0.386298
v 0.922101 19.877735 -0.703656
v 0.036609 19.877735 -0.907693
v 0.950352 22.024500 -0.594647
v 0.036609 22.314821 -0.615653
v 0.944876 23.885775 0.243921
v 0.036609 24.144691 0.243921
v 0.934181 24.280897 0.352197
v 0.036609 24.537043 0.446339
v 0.036609 24.144691 0.243921
v 0.944876 23.885775 0.243921
v 0.808420 24.451874 0.120926
v 0.036609 24.659470 0.256675
v 0.672354 22.803135 -1.203212
v 0.036609 22.894196 -1.203212
v 0.672354 19.866573 -1.956150
v 0.036609 19.866573 -1.956149
v 0.672354 17.630066 -1.489412
v 0.036609 17.630066 -1.489412
v 0.672354 16.812828 -1.036294
v 0.036609 16.901548 -1.036294
v 1.495623 16.805099 0.219535
v 1.683636 17.857323 -0.149231
v 1.848778 19.884026 -0.468444
v 1.917149 21.550869 -0.469878
v 1.942317 22.961798 0.160780
v 2.543417 18.364412 0.076818
v 2.932953 19.914516 0.015778
v 2.716918 21.262789 0.064318
v 0.921047 15.929801 0.195791
v 1.556515 16.563375 0.159338
v 1.495623 16.805099 0.219535
v 0.907663 16.120762 0.137600
v 2.055075 23.264471 0.174915
v 1.942317 22.961798 0.160780
v 2.798515 18.269648 0.066702
v 2.543417 18.364412 0.076818
v 3.180451 19.906822 -0.003197
v 2.932953 19.914516 0.015778
v 2.893135 21.431486 0.045718
v 2.716918 21.262789 0.064318
v 2.089117 23.440863 -0.033613
v 2.841700 18.214947 -0.106916
v 3.253164 19.937216 -0.245116
v 2.973942 21.508762 -0.200154
v 2.015369 22.132954 -0.990547
v 1.986294 19.906094 -1.557105
v 1.966218 18.100760 -1.214979
v 0.939618 16.617321 -0.591499
v -0.689495 -5.178036 -0.932768
v -0.793892 -5.263658 -0.799002
v -0.826351 -5.263658 0.118215
v -0.727700 -5.178036 0.260873
v -0.727700 -5.178036 0.260873
v -0.479094 5.980113 0.193876
v -0.358512 14.299864 0.266038
v -0.358512 14.299864 0.266038
v -0.383068 14.962413 0.260873
v -0.383068 14.962413 0.260873
v -0.847829 15.929801 0.195791
v -0.826351 -5.263658 0.118215
v -0.727700 -5.178036 0.260873
v -0.544782 5.980113 0.073147
v -0.479094 5.980113 0.193876
v -0.793892 -5.263658 -0.799002
v -0.523168 5.980113 -0.405510
v -0.689495 -5.178036 -0.932768
v -0.523168 5.980113 -0.555543
v -0.408300 14.299864 0.138986
v -0.358512 14.299864 0.266038
v -0.391918 14.299864 -0.093295
v -0.344088 14.299864 -0.195361
v -0.408580 14.962413 0.179632
v -0.383068 14.962413 0.260873
v -0.365081 14.962413 -0.170116
v -0.408580 14.962413 0.179632
v -0.383068 14.962413 0.260873
v -0.847829 15.929801 0.195791
v -0.365081 14.962413 -0.170116
v -0.594699 16.048386 -0.241171
v -0.834444 16.120762 0.137599
v -1.022495 17.557404 -0.297722
v -0.848882 19.877735 -0.703656
v -0.877133 22.024500 -0.594647
v -0.871657 23.885775 0.243921
v -0.860963 24.280897 0.352197
v -0.871657 23.885775 0.243921
v -0.735201 24.451874 0.120926
v -0.599135 22.803135 -1.203212
v -0.599135 19.866573 -1.956149
v -0.599135 17.630066 -1.489412
v -0.599135 16.812828 -1.036294
v -1.610417 17.857323 -0.149231
v -1.422404 16.805099 0.219535
v -1.775560 19.884026 -0.468444
v -1.843930 21.550869 -0.469878
v -1.869099 22.961798 0.160780
v -2.470198 18.364412 0.076818
v -2.859733 19.914516 0.015778
v -2.643698 21.262789 0.064318
v -1.483296 16.563375 0.159338
v -0.847829 15.929801 0.195791
v -1.422404 16.805099 0.219535
v -0.834444 16.120762 0.137599
v -1.983810 23.264471 0.174915
v -1.869099 22.961798 0.160780
v -2.725297 18.269648 0.066702
v -2.470198 18.364412 0.076818
v -3.107232 19.906822 -0.003197
v -2.859733 19.914516 0.015778
v -2.819916 21.431486 0.045718
v -2.643698 21.262789 0.064318
v -2.015899 23.440863 -0.033613
v -2.768481 18.214947 -0.106916
v -3.179945 19.937216 -0.245116
v -2.900723 21.508762 -0.200154
v -1.913075 19.906094 -1.557105
v -1.942150 22.132954 -0.990547
v -1.893000 18.100760 -1.214979
v -0.866399 16.617321 -0.591499

vt 0.319048 0.587908
vt 0.322774 0.632480
vt 0.334230 0.638888
vt 0.334230 0.587908
vt 0.412777 0.640881
vt 0.412776 0.587908
vt 0.424993 0.634825
vt 0.424993 0.587908
vt 0.909549 0.017199
vt 0.990495 0.017571
vt 0.990495 0.410579
vt 0.909549 0.410100
vt 0.990495 0.931886
vt 0.909549 0.931802
vt 0.909549 0.931802
vt 0.990495 0.931886
vt 0.990495 0.990880
vt 0.909549 0.991120
vt 0.035247 0.577109
vt 0.051472 0.561677
vt 0.105292 0.587315
vt 0.059222 0.605682
vt 0.449773 0.017199
vt 0.480897 0.017199
vt 0.480897 0.410100
vt 0.449773 0.410100
vt 0.545572 0.017199
vt 0.545572 0.410100
vt 0.576680 0.017199
vt 0.576680 0.410100
vt 0.480897 0.931802
vt 0.449773 0.931802
vt 0.545572 0.931802
vt 0.576680 0.931802
vt 0.480897 0.991120
vt 0.449773 0.991120
vt 0.573879 0.991120
vt 0.205178 0.034089
vt 0.204019 0.034152
vt 0.184063 0.078782
vt 0.205996 0.034420
vt 0.195563 0.084590
vt 0.629522 0.017199
vt 0.629522 0.410100
vt 0.629522 0.931802
vt 0.629522 0.991120
vt 0.224246 0.035641
vt 0.224246 0.066046
vt 0.111590 0.595929
vt 0.170753 0.650859
vt 0.123301 0.682048
vt 0.247082 0.756206
vt 0.210792 0.786315
vt 0.325804 0.847683
vt 0.298991 0.891426
vt 0.393447 0.928751
vt 0.365741 0.970977
vt 0.174682 0.504128
vt 0.224246 0.520491
vt 0.223840 0.547122
vt 0.158177 0.528110
vt 0.189180 0.472111
vt 0.224246 0.481586
vt 0.195362 0.397043
vt 0.224246 0.401246
vt 0.195362 0.262108
vt 0.224246 0.262108
vt 0.195362 0.158540
vt 0.224246 0.158540
vt 0.195362 0.120478
vt 0.224246 0.124572
vt 0.160341 0.605319
vt 0.205683 0.643780
vt 0.285304 0.724988
vt 0.348251 0.794340
vt 0.400719 0.854785
vt 0.259244 0.636383
vt 0.331030 0.689663
vt 0.370918 0.755098
vt 0.184063 0.078782
vt 0.155191 0.108047
vt 0.117412 0.071625
vt 0.159919 0.021475
vt 0.109442 0.449482
vt 0.087829 0.470934
vt 0.068690 0.183966
vt 0.041663 0.186300
vt 0.045434 0.265063
vt 0.016212 0.262256
vt 0.061775 0.343715
vt 0.031830 0.361200
vt 0.130992 0.425574
vt 0.096800 0.184468
vt 0.078105 0.264052
vt 0.090791 0.336540
vt 0.134343 0.365953
vt 0.135664 0.263625
vt 0.136576 0.180050
vt 0.183219 0.111114
vt 0.322774 0.543336
vt 0.334230 0.536928
vt 0.412776 0.534935
vt 0.424993 0.540991
vt 0.827314 0.017199
vt 0.827314 0.410100
vt 0.827314 0.931802
vt 0.827314 0.931802
vt 0.827314 0.991120
vt 0.017232 0.590408
vt 0.033134 0.647862
vt 0.795657 0.017199
vt 0.827314 0.017199
vt 0.795657 0.410100
vt 0.827314 0.410100
vt 0.718923 0.017199
vt 0.718923 0.410100
vt 0.686475 0.017199
vt 0.686475 0.410100
vt 0.795657 0.931802
vt 0.827314 0.931802
vt 0.718923 0.931802
vt 0.686475 0.931802
vt 0.795657 0.991120
vt 0.827314 0.991120
vt 0.686475 0.991120
vt 0.244473 0.034152
vt 0.243314 0.034089
vt 0.264430 0.078781
vt 0.242496 0.034420
vt 0.252929 0.084590
vt 0.040524 0.655560
vt 0.084346 0.723363
vt 0.174838 0.816825
vt 0.251256 0.910236
vt 0.319346 0.990929
vt 0.273810 0.504128
vt 0.289502 0.528110
vt 0.259312 0.472111
vt 0.253130 0.397043
vt 0.253130 0.262108
vt 0.253130 0.158540
vt 0.253130 0.120478
vt 0.071309 0.756533
vt 0.041306 0.705201
vt 0.137457 0.849046
vt 0.194826 0.923080
vt 0.245241 0.985247
vt 0.054724 0.807996
vt 0.094730 0.887943
vt 0.152244 0.938589
vt 0.293301 0.108047
vt 0.264430 0.078781
vt 0.328370 0.071625
vt 0.285863 0.021474
vt 0.339050 0.449481
vt 0.363373 0.470933
vt 0.377717 0.183966
vt 0.404119 0.186300
vt 0.403058 0.265062
vt 0.434991 0.262256
vt 0.386717 0.343714
vt 0.419373 0.361200
vt 0.317500 0.425574
vt 0.351692 0.184468
vt 0.370387 0.264052
vt 0.357701 0.336540
vt 0.312828 0.263625
vt 0.314149 0.365953
vt 0.311916 0.180050
vt 0.265273 0.111114

vn 0.000000 -0.583250 -0.812293
vn 0.970075 -0.020838 -0.241908
vn 0.997416 -0.058565 -0.041613
vn 0.000000 -0.958514 -0.285046
vn 0.997230 -0.062751 0.039941
vn 0.000000 -0.948589 0.316511
vn 0.997231 -0.036420 0.064832
vn 0.000000 -0.716141 0.697956
vn 0.000000 0.005931 0.999982
vn -0.050049 0.005927 0.998729
vn -0.000265 -0.001417 0.999999
vn 0.000000 -0.001439 0.999999
vn 0.000000 -0.008673 0.999962
vn 0.000004 -0.008673 0.999962
vn 0.000004 0.007767 0.999970
vn 0.000000 0.007795 0.999970
vn 0.031384 0.033421 0.998949
vn 0.000004 0.056001 0.998431
vn 0.000004 0.056001 0.998431
vn 0.031384 0.033421 0.998949
vn -0.959393 0.070884 0.273023
vn 0.000000 0.277415 0.960750
vn 0.997231 -0.036420 0.064832
vn 0.997230 -0.062751 0.039941
vn 0.999881 0.001245 0.015378
vn 0.999428 0.001170 0.033789
vn 0.997416 -0.058565 -0.041613
vn 0.999998 0.001371 -0.001453
vn 0.970075 -0.020838 -0.241908
vn 0.970073 0.010723 -0.242577
vn 0.999955 0.000473 0.009478
vn 0.999707 -0.000437 0.024183
vn 0.999870 0.001119 -0.016113
vn 0.966005 -0.005598 -0.258464
vn 0.999922 -0.011792 0.004001
vn 0.999698 -0.014959 0.019475
vn 0.994359 -0.006726 -0.105852
vn 0.999698 -0.014959 0.019475
vn 0.999922 -0.011792 0.004001
vn 0.998039 -0.042203 -0.046222
vn 0.994359 -0.006726 -0.105852
vn 0.994402 -0.059737 -0.087156
vn 0.000000 -0.583250 -0.812293
vn 0.000000 0.038534 -0.999257
vn 0.000000 -0.033043 -0.999454
vn 0.000000 -0.048457 -0.998825
vn 0.000000 -0.048457 -0.998825
vn 0.000000 -0.173867 -0.984769
vn -0.981933 0.056086 0.180727
vn -0.961444 0.067386 0.266617
vn 0.000000 0.216700 0.976238
vn -0.967690 0.018683 0.251448
vn 0.000000 0.073909 0.997265
vn -0.934001 -0.084074 0.347236
vn 0.000000 -0.341539 0.939868
vn -0.917658 -0.167820 0.360194
vn 0.000000 -0.425172 0.905113
vn 0.949251 0.028818 0.313195
vn 0.000000 0.465513 0.885041
vn 0.000000 -0.345613 0.938377
vn -0.793480 -0.156558 0.588115
vn 0.966927 0.225736 -0.118726
vn 0.000000 0.999976 0.006902
vn 0.934453 0.153197 -0.321448
vn 0.000000 0.506859 -0.862029
vn 0.871686 0.007568 -0.490006
vn -0.000004 0.019002 -0.999819
vn 0.888614 -0.166861 -0.427227
vn -0.000004 -0.351033 -0.936363
vn 0.853717 -0.342311 -0.392415
vn 0.000000 -0.593692 -0.804692
vn -0.993016 0.043066 0.109843
vn -0.987771 0.042059 0.150132
vn -0.981968 0.014362 0.188500
vn -0.978635 -0.023873 0.204216
vn -0.982373 -0.075371 0.171061
vn -0.987701 0.033510 0.152723
vn -0.991294 0.009533 0.131321
vn -0.996429 -0.020015 0.082027
vn -0.959393 0.070884 0.273023
vn 0.995661 -0.055110 0.074978
vn 0.982429 -0.027401 0.184613
vn -0.981933 0.056086 0.180727
vn 0.969850 0.018014 0.243038
vn 0.431517 -0.051148 0.900654
vn 0.976473 -0.017453 0.214932
vn 0.641742 0.018095 0.766707
vn 0.982471 -0.001292 0.186412
vn 0.774787 -0.000743 0.632222
vn 0.984604 0.011009 0.174455
vn 0.878315 -0.004778 0.478058
vn 0.997197 0.066816 -0.033668
vn 0.999379 -0.033564 -0.010765
vn 0.999790 -0.000083 -0.020506
vn 0.999668 0.019317 -0.017049
vn 0.991792 0.045414 -0.119524
vn 0.991186 0.004170 -0.132414
vn 0.992517 -0.043498 -0.114100
vn 0.995671 -0.068909 -0.062378
vn -0.970075 -0.020838 -0.241908
vn -0.997416 -0.058565 -0.041613
vn -0.997230 -0.062751 0.039941
vn -0.997231 -0.036420 0.064832
vn 0.050053 0.005927 0.998729
vn 0.000265 -0.001417 0.999999
vn 0.000004 -0.008673 0.999962
vn 0.000004 0.007795 0.999970
vn -0.031380 0.033421 0.998949
vn -0.031380 0.033421 0.998949
vn 0.959393 0.070884 0.273023
vn -0.997230 -0.062751 0.039941
vn -0.997231 -0.036420 0.064832
vn -0.999881 0.001245 0.015378
vn -0.999428 0.001170 0.033788
vn -0.997416 -0.058565 -0.041613
vn -0.999998 0.001371 -0.001453
vn -0.970075 -0.020838 -0.241908
vn -0.970073 0.010723 -0.242578
vn -0.999955 0.000473 0.009478
vn -0.999707 -0.000437 0.024183
vn -0.999870 0.001119 -0.016113
vn -0.966005 -0.005598 -0.258464
vn -0.999922 -0.011792 0.004001
vn -0.999698 -0.014959 0.019475
vn -0.994359 -0.006726 -0.105852
vn -0.999922 -0.011792 0.004001
vn -0.999698 -0.014959 0.019475
vn -0.998039 -0.042203 -0.046222
vn -0.994359 -0.006726 -0.105852
vn -0.994402 -0.059737 -0.087156
vn 0.981933 0.056086 0.180727
vn 0.961444 0.067386 0.266616
vn 0.967690 0.018683 0.251448
vn 0.934001 -0.084074 0.347236
vn 0.917658 -0.167820 0.360194
vn -0.949251 0.028818 0.313195
vn 0.793479 -0.156558 0.588116
vn -0.966927 0.225736 -0.118726
vn -0.934453 0.153197 -0.321448
vn -0.871686 0.007568 -0.490006
vn -0.888614 -0.166861 -0.427226
vn -0.853717 -0.342311 -0.392415
vn 0.987771 0.042059 0.150132
vn 0.993016 0.043066 0.109843
vn 0.981968 0.014362 0.188500
vn 0.978635 -0.023873 0.204216
vn 0.982373 -0.075371 0.171061
vn 0.987701 0.033510 0.152723
vn 0.991294 0.009533 0.131321
vn 0.996429 -0.020015 0.082027
vn -0.995661 -0.055110 0.074978
vn 0.959393 0.070884 0.273023
vn -0.982429 -0.027401 0.184613
vn 0.981933 0.056086 0.180727
vn -0.969850 0.018014 0.243038
vn -0.431507 -0.051148 0.900658
vn -0.976473 -0.017453 0.214932
vn -0.641742 0.018095 0.766707
vn -0.982471 -0.001292 0.186412
vn -0.774787 -0.000743 0.632222
vn -0.984604 0.011009 0.174455
vn -0.878314 -0.004778 0.478060
vn -0.997197 0.066816 -0.033668
vn -0.999379 -0.033564 -0.010765
vn -0.999790 -0.000083 -0.020506
vn -0.999668 0.019317 -0.017049
vn -0.991186 0.004170 -0.132415
vn -0.991792 0.045414 -0.119524
vn -0.992517 -0.043498 -0.114100
vn -0.995671 -0.068909 -0.062378

g Spoon
s 1
usemtl mat1
f 1/1/1 2/2/2 3/3/3
f 3/3/3 4/4/4 1/1/1
f 4/4/4 3/3/3 5/5/5
f 5/5/5 6/6/6 4/4/4
f 6/6/6 5/5/5 7/7/7
f 7/7/7 8/8/8 6/6/6
f 9/9/9 10/10/10 11/11/11
f 11/11/11 12/12/12 9/9/9
f 12/12/12 11/11/11 13/13/13
f 13/13/13 14/14/14 12/12/12
f 15/15/15 16/16/16 17/17/17
f 17/17/17 18/18/18 15/15/15
f 19/19/19 20/20/20 21/21/21
f 21/21/21 22/22/22 19/19/19
f 23/23/23 24/24/24 25/25/25
f 25/25/25 26/26/26 23/23/23
f 24/24/24 27/27/27 28/28/28
f 28/28/28 25/25/25 24/24/24
f 27/27/27 29/29/29 30/30/30
f 30/30/30 28/28/28 27/27/27
f 26/26/26 25/25/25 31/31/31
f 31/31/31 32/32/32 26/26/26
f 25/25/25 28/28/28 33/33/33
f 33/33/33 31/31/31 25/25/25
f 28/28/28 30/30/30 34/34/34
f 34/34/34 33/33/33 28/28/28
f 32/32/32 31/31/31 35/35/35
f 35/35/35 36/36/36 32/32/32
f 31/31/31 33/33/33 37/37/37
f 37/37/37 35/35/35 31/31/31
f 33/33/33 34/34/34 37/37/37
f 38/38/38 39/39/39 40/40/40
f 39/39/39 41/41/41 42/42/42
f 42/42/42 40/40/40 39/39/39
f 29/29/29 43/43/43 44/44/44
f 44/44/44 30/30/30 29/29/29
f 30/30/30 44/44/44 45/45/45
f 45/45/45 34/34/34 30/30/30
f 34/34/34 45/45/45 46/46/46
f 46/46/46 37/37/37 34/34/34
f 41/41/41 47/47/47 48/48/48
f 48/48/48 42/42/42 41/41/41
f 22/22/22 21/21/21 49/49/49
f 50/50/50 51/51/51 22/22/22
f 22/22/22 49/49/49 50/50/50
f 52/52/52 53/53/53 51/51/51
f 51/51/51 50/50/50 52/52/52
f 54/54/54 55/55/55 53/53/53
f 53/53/53 52/52/52 54/54/54
f 56/56/56 57/57/57 55/55/55
f 55/55/55 54/54/54 56/56/56
f 58/58/58 59/59/59 60/60/60
f 60/60/60 61/61/61 58/58/58
f 62/62/62 63/63/63 59/59/59
f 59/59/59 58/58/58 62/62/62
f 64/64/64 65/65/65 63/63/63
f 63/63/63 62/62/62 64/64/64
f 66/66/66 67/67/67 65/65/65
f 65/65/65 64/64/64 66/66/66
f 68/68/68 69/69/69 67/67/67
f 67/67/67 66/66/66 68/68/68
f 70/70/70 71/71/71 69/69/69
f 69/69/69 68/68/68 70/70/70
f 42/42/42 48/48/48 71/71/71
f 71/71/71 70/70/70 42/42/42
f 72/72/72 73/73/73 50/50/50
f 50/50/50 49/49/49 72/72/72
f 73/73/73 74/74/74 52/52/52
f 52/52/52 50/50/50 73/73/73
f 74/74/74 75/75/75 54/54/54
f 54/54/54 52/52/52 74/74/74
f 75/75/75 76/76/76 56/56/56
f 56/56/56 54/54/54 75/75/75
f 73/73/73 72/72/72 77/77/77
f 77/77/77 78/78/78 74/74/74
f 74/74/74 73/73/73 77/77/77
f 78/78/78 79/79/79 75/75/75
f 75/75/75 74/74/74 78/78/78
f 76/76/76 75/75/75 79/79/79
f 80/80/80 81/81/81 82/82/82
f 82/82/82 83/83/83 80/80/80
f 84/84/84 58/58/58 61/61/61
f 61/61/61 85/85/85 84/84/84
f 81/81/81 86/86/86 87/87/87
f 87/87/87 82/82/82 81/81/81
f 86/86/86 88/88/88 89/89/89
f 89/89/89 87/87/87 86/86/86
f 88/88/88 90/90/90 91/91/91
f 91/91/91 89/89/89 88/88/88
f 90/90/90 84/84/84 85/85/85
f 85/85/85 91/91/91 90/90/90
f 92/92/92 62/62/62 58/58/58
f 58/58/58 84/84/84 92/92/92
f 81/81/81 93/93/93 86/86/86
f 93/93/93 94/94/94 88/88/88
f 88/88/88 86/86/86 93/93/93
f 94/94/94 95/95/95 90/90/90
f 90/90/90 88/88/88 94/94/94
f 95/95/95 92/92/92 84/84/84
f 84/84/84 90/90/90 95/95/95
f 96/96/96 97/97/97 66/66/66
f 66/66/66 64/64/64 96/96/96
f 97/97/97 98/98/98 68/68/68
f 68/68/68 66/66/66 97/97/97
f 97/97/97 96/96/96 94/94/94
f 98/98/98 97/97/97 94/94/94
f 99/99/99 81/81/81 40/40/40
f 40/40/40 42/42/42 99/99/99
f 42/42/42 70/70/70 99/99/99
f 98/98/98 99/99/99 70/70/70
f 70/70/70 68/68/68 98/98/98
f 62/62/62 92/92/92 96/96/96
f 96/96/96 64/64/64 62/62/62
f 94/94/94 93/93/93 98/98/98
f 98/98/98 93/93/93 81/81/81
f 98/98/98 81/81/81 99/99/99
f 96/96/96 92/92/92 95/95/95
f 96/96/96 95/95/95 94/94/94
f 100/100/100 1/1/1 101/101/101
f 4/4/4 101/101/101 1/1/1
f 101/101/101 4/4/4 102/102/102
f 6/6/6 102/102/102 4/4/4
f 102/102/102 6/6/6 103/103/103
f 8/8/8 103/103/103 6/6/6
f 104/104/104 9/9/9 105/105/105
f 12/12/12 105/105/105 9/9/9
f 105/105/105 12/12/12 106/106/106
f 14/14/14 106/106/106 12/12/12
f 107/107/107 15/15/15 108/108/108
f 18/18/18 108/108/108 15/15/15
f 109/109/109 19/19/19 110/110/110
f 22/22/22 110/110/110 19/19/19
f 111/111/111 112/112/112 113/113/113
f 114/114/114 113/113/113 112/112/112
f 115/115/115 111/111/111 116/116/116
f 113/113/113 116/116/116 111/111/111
f 117/117/117 115/115/115 118/118/118
f 116/116/116 118/118/118 115/115/115
f 113/113/113 114/114/114 119/119/119
f 120/120/120 119/119/119 114/114/114
f 116/116/116 113/113/113 121/121/121
f 119/119/119 121/121/121 113/113/113
f 118/118/118 116/116/116 122/122/122
f 121/121/121 122/122/122 116/116/116
f 119/119/119 120/120/120 123/123/123
f 124/124/124 123/123/123 120/120/120
f 121/121/121 119/119/119 125/125/125
f 123/123/123 125/125/125 119/119/119
f 122/122/122 121/121/121 125/125/125
f 126/126/126 127/127/127 128/128/128
f 129/129/129 126/126/126 130/130/130
f 128/128/128 130/130/130 126/126/126
f 43/43/43 117/117/117 44/44/44
f 118/118/118 44/44/44 117/117/117
f 44/44/44 118/118/118 45/45/45
f 122/122/122 45/45/45 118/118/118
f 45/45/45 122/122/122 46/46/46
f 125/125/125 46/46/46 122/122/122
f 47/47/47 129/129/129 48/48/48
f 130/130/130 48/48/48 129/129/129
f 110/110/110 22/22/22 131/131/131
f 51/51/51 132/132/132 22/22/22
f 131/131/131 22/22/22 132/132/132
f 53/53/53 133/133/133 51/51/51
f 132/132/132 51/51/51 133/133/133
f 55/55/55 134/134/134 53/53/53
f 133/133/133 53/53/53 134/134/134
f 57/57/57 135/135/135 55/55/55
f 134/134/134 55/55/55 135/135/135
f 59/59/59 136/136/136 60/60/60
f 137/137/137 60/60/60 136/136/136
f 63/63/63 138/138/138 59/59/59
f 136/136/136 59/59/59 138/138/138
f 65/65/65 139/139/139 63/63/63
f 138/138/138 63/63/63 139/139/139
f 67/67/67 140/140/140 65/65/65
f 139/139/139 65/65/65 140/140/140
f 69/69/69 141/141/141 67/67/67
f 140/140/140 67/67/67 141/141/141
f 71/71/71 142/142/142 69/69/69
f 141/141/141 69/69/69 142/142/142
f 48/48/48 130/130/130 71/71/71
f 142/142/142 71/71/71 130/130/130
f 143/143/143 144/144/144 132/132/132
f 131/131/131 132/132/132 144/144/144
f 145/145/145 143/143/143 133/133/133
f 132/132/132 133/133/133 143/143/143
f 146/146/146 145/145/145 134/134/134
f 133/133/133 134/134/134 145/145/145
f 147/147/147 146/146/146 135/135/135
f 134/134/134 135/135/135 146/146/146
f 144/144/144 143/143/143 148/148/148
f 149/149/149 148/148/148 145/145/145
f 143/143/143 145/145/145 148/148/148
f 150/150/150 149/149/149 146/146/146
f 145/145/145 146/146/146 149/149/149
f 146/146/146 147/147/147 150/150/150
f 151/151/151 152/152/152 153/153/153
f 154/154/154 153/153/153 152/152/152
f 136/136/136 155/155/155 137/137/137
f 156/156/156 137/137/137 155/155/155
f 157/157/157 151/151/151 158/158/158
f 153/153/153 158/158/158 151/151/151
f 159/159/159 157/157/157 160/160/160
f 158/158/158 160/160/160 157/157/157
f 161/161/161 159/159/159 162/162/162
f 160/160/160 162/162/162 159/159/159
f 155/155/155 161/161/161 156/156/156
f 162/162/162 156/156/156 161/161/161
f 138/138/138 163/163/163 136/136/136
f 155/155/155 136/136/136 163/163/163
f 164/164/164 151/151/151 157/157/157
f 165/165/165 164/164/164 159/159/159
f 157/157/157 159/159/159 164/164/164
f 166/166/166 165/165/165 161/161/161
f 159/159/159 161/161/161 165/165/165
f 163/163/163 166/166/166 155/155/155
f 161/161/161 155/155/155 166/166/166
f 167/167/167 168/168/168 140/140/140
f 139/139/139 140/140/140 168/168/168
f 169/169/169 167/167/167 141/141/141
f 140/140/140 141/141/141 167/167/167
f 168/168/168 167/167/167 165/165/165
f 167/167/167 169/169/169 165/165/165
f 151/151/151 170/170/170 128/128/128
f 130/130/130 128/128/128 170/170/170
f 142/142/142 130/130/130 170/170/170
f 170/170/170 169/169/169 142/142/142
f 141/141/141 142/142/142 169/169/169
f 163/163/163 138/138/138 168/168/168
f 139/139/139 168/168/168 138/138/138
f 164/164/164 165/165/165 169/169/169
f 164/164/164 169/169/169 151/151/151
f 151/151/151 169/169/169 170/170/170
f 163/163/163 168/168/168 166/166/166
f 166/166/166 168/168/168 165/165/165

