# Blender v2.77 (sub 0) OBJ File: ''
# www.blender.org
mtllib Plastic_bag 1.mtl
o COM_Deco_Out.000_COM_Deco_Out.007
v -21.750711 -16.826496 7.561695
v -20.646549 -19.873362 -0.991351
v -17.950897 -11.668627 -10.580768
v -24.034613 -22.734926 -3.688322
v -22.211922 -28.973740 -4.470682
v -20.096577 -29.173679 -11.254586
v -4.838364 -36.308666 -17.444998
v 16.388817 -37.557644 -2.135086
v 9.472500 -35.561127 -16.359694
v 7.290682 -28.915039 -22.621321
v 21.933773 -27.643518 -10.547141
v -4.422390 -28.096548 -21.203396
v -12.446830 -9.203249 -19.134335
v -2.377869 -18.715250 -22.513828
v 24.068502 -34.696079 -2.855191
v 23.691305 -18.558969 1.027850
v 20.463093 -18.185854 -14.728240
v 13.537276 -21.294708 -19.278757
v 11.031411 -16.723877 -21.772354
v 9.894542 -7.900201 -19.868553
v -9.227584 -3.618074 -19.293392
v -14.092524 1.330350 -14.265174
v -17.412003 6.097821 -6.354025
v -20.482742 -8.111094 -3.069104
v 1.932615 2.321091 -19.015900
v -2.137568 8.442785 -15.717254
v 6.012955 9.688463 -11.743480
v -12.115790 9.708507 -9.625894
v -7.076101 13.425629 3.525152
v -18.345505 -3.412994 3.195955
v 5.737177 14.519241 0.029339
v -0.813812 13.948692 -6.779492
v 9.127350 12.624148 -5.583140
v 18.915653 6.569716 1.960435
v 12.692537 12.297590 3.625386
v 15.431579 6.611124 7.898280
v 8.466990 10.870964 8.833363
v 4.795105 3.163578 13.973155
v -3.719429 8.337799 9.607282
v -10.139719 -3.207912 13.715181
v 22.477674 -8.535507 -6.304836
v 18.441517 -1.912107 -13.578569
v -3.445763 -11.851830 17.454062
v 7.001849 -10.548779 17.504971
v 14.171786 -3.883440 14.659760
v 19.433313 -6.735643 9.657657
v 21.295698 -5.784334 1.389490
v 22.892199 -18.466387 6.116471
v 17.554968 -19.561716 11.093118
v 7.520959 -27.642603 14.654871
v 11.123866 -20.549421 16.760855
v -1.052662 -29.224070 15.773676
v -1.876299 -23.763260 19.313412
v -9.662022 -27.425253 14.564133
v -8.222205 -21.613621 16.437071
v -13.551783 -11.399056 12.907763
v -14.138156 6.611652 4.965890
v -18.565229 -24.055126 6.729218
v -8.375195 -34.311901 10.566879
v 5.444124 -33.862690 15.083770
v 11.381310 -36.150410 7.055110
v -5.664375 -37.349396 4.232976
v 21.078745 -27.015081 6.986398
v -7.726966 -38.163536 -5.762260
v -24.048855 -35.447582 -1.830293
v -21.532438 -30.565626 0.173081
v -1.329625 18.444876 -2.724737
v -2.407675 18.087727 -1.059392
v -1.747841 19.003553 -1.983924
v 0.669791 19.399220 -2.778021
v -0.375286 18.849638 -2.128737
v -1.047650 18.016375 -0.107427
v -1.262362 18.295313 0.441885
v -1.646024 17.870771 1.474565
v -2.593372 17.443850 1.280426
v -2.225801 18.394232 2.950783
v 1.574409 17.770666 -1.264873
v 3.187263 18.318789 2.583080
v 4.326771 18.278961 2.003434
v 2.234638 16.509687 1.094596
v 4.064580 18.037607 0.149885
v 1.132717 14.944577 1.480895
v 0.266084 16.017090 0.662267
v 3.004334 18.197586 3.658888
v 0.436878 16.714508 2.241095
v -0.999511 18.708258 3.177366
v 0.432130 17.764996 3.526868
v 1.948837 18.972828 4.993064
v -0.249201 17.570065 4.007862
v 0.180357 17.580484 4.943473
v 3.553646 17.312622 4.403525
v 5.623888 17.791903 0.366577
v 5.248930 18.252586 -0.852988
v 3.647419 18.503569 -1.726216
v 3.826918 14.745952 2.215641
v 4.330070 18.188751 3.923982
v 1.510971 15.818598 4.450081
v 2.209712 18.643629 5.946611
v 0.807877 13.610140 2.391050
v -1.403086 15.294214 2.700196
v 0.036467 13.484055 1.587063
v 1.295203 12.846773 1.390815
v 3.697404 14.049718 0.130629
v 0.653438 13.010184 -0.076568
v 2.157484 14.644139 -1.552522
v 3.292377 15.613379 -1.468508
v 0.400873 15.631185 -2.243481
v 1.141421 18.766022 -3.223405
v 2.369032 17.525223 -1.843332
v 5.447026 18.348202 1.783445
v -0.336379 18.695597 -3.357271
v -1.057013 13.958453 -0.055729
v -3.754907 18.876415 -0.260417
v -15.636401 9.975576 0.910875
vt 0.9731 0.8936
vt 0.9189 0.9417
vt 0.9102 0.8702
vt 0.8164 0.8521
vt 0.9219 0.8276
vt 0.9546 0.7825
vt 0.9106 0.7478
vt 0.9932 0.7178
vt 0.8359 0.6316
vt 0.9038 0.5920
vt 0.7378 0.4639
vt 0.7441 0.5706
vt 0.7339 0.6245
vt 0.6260 0.5356
vt 0.8013 0.6729
vt 0.7568 0.8103
vt 0.7529 0.7092
vt 0.6411 0.4614
vt 0.4844 0.5535
vt 0.6069 0.5977
vt 0.6675 0.6248
vt 0.6689 0.6575
vt 0.6416 0.7009
vt 0.7188 0.8171
vt 0.7173 0.8716
vt 0.7031 0.9351
vt 0.8164 0.9158
vt 0.6382 0.7849
vt 0.6274 0.8331
vt 0.5698 0.8147
vt 0.6587 0.9047
vt 0.5742 0.9621
vt 0.6714 0.9826
vt 0.7964 0.9758
vt 0.4907 0.8485
vt 0.5684 0.8752
vt 0.5254 0.8130
vt 0.4919 0.7427
vt 0.4778 0.7950
vt 0.4575 0.7563
vt 0.4358 0.8033
vt 0.3748 0.7751
vt 0.3525 0.8455
vt 0.2622 0.7971
vt 0.5322 0.6394
vt 0.5693 0.7007
vt 0.2700 0.7158
vt 0.3362 0.6838
vt 0.4016 0.7034
vt 0.4355 0.6689
vt 0.4880 0.6609
vt 0.4475 0.5642
vt 0.3926 0.5850
vt 0.2971 0.5789
vt 0.3350 0.6106
vt 0.2318 0.6008
vt 0.2439 0.6394
vt 0.1786 0.6384
vt 0.2074 0.6750
vt 0.2056 0.7639
vt 0.2827 0.8919
vt 0.1987 0.8615
vt 0.1203 0.7615
vt 0.0996 0.6794
vt 0.1642 0.5840
vt 0.2632 0.5581
vt 0.2888 0.4995
vt 0.1642 0.5305
vt 0.4011 0.5232
vt 0.3933 0.4292
vt 0.3064 0.4302
vt 0.1191 0.4746
vt 0.0247 0.5747
vt 0.0461 0.6191
vt 0.0122 0.6301
vt 0.9106 0.2817
vt 0.9375 0.2837
vt 0.9199 0.2866
vt 0.8950 0.2881
vt 0.8950 0.3032
vt 0.9082 0.2974
vt 0.9395 0.3032
vt 0.9502 0.3032
vt 0.9585 0.2744
vt 0.9668 0.3105
vt 0.9741 0.2988
vt 0.9893 0.3174
vt 0.9048 0.3311
vt 0.9438 0.3833
vt 0.9492 0.4004
vt 0.9282 0.3867
vt 0.9321 0.3540
vt 0.9087 0.3696
vt 0.9438 0.3433
vt 0.9429 0.3311
vt 0.9604 0.3848
vt 0.9609 0.3418
vt 0.9834 0.3296
vt 0.9771 0.3521
vt 0.9819 0.3809
vt 0.9883 0.3472
vt 0.9941 0.3579
vt 0.9902 0.3882
vt 0.9644 0.4004
vt 0.9185 0.3950
vt 0.9019 0.3877
vt 0.8911 0.3760
vt 0.8896 0.3540
vt 0.8926 0.3345
vt 0.8862 0.3062
vt 0.8486 0.3921
vt 0.8428 0.4316
vt 0.8252 0.3911
vt 0.8765 0.4087
vt 0.8770 0.3716
vt 0.9023 0.3965
vt 0.8750 0.4443
vt 0.9165 0.4136
vt 0.9072 0.4473
vt 0.9424 0.4399
vt 0.9341 0.4707
vt 0.8828 0.4565
vt 0.8643 0.4507
vt 0.8384 0.4565
vt 0.8672 0.4707
vt 0.8452 0.4829
vt 0.8281 0.4805
vt 0.8608 0.5039
vt 0.8398 0.5369
vt 0.8223 0.5068
vt 0.7983 0.4961
vt 0.7881 0.4692
vt 0.7925 0.4438
vt 0.7979 0.4165
vt 0.8667 0.5432
vt 0.8862 0.4751
vt 0.9429 0.5061
vt 0.9160 0.5161
vt 0.8896 0.5356
vt 0.3679 0.9054
vt 0.2874 0.9299
vn -0.7821 -0.2915 0.5508
vn -0.9084 -0.0466 0.4154
vn -0.9377 0.2996 0.1758
vn -0.8993 0.1467 -0.4119
vn -0.9895 0.1311 0.0603
vn -0.9993 0.0013 -0.0363
vn -0.7356 -0.2406 -0.6333
vn -0.8549 -0.5004 0.1370
vn -0.2035 -0.7675 -0.6078
vn -0.0886 -0.9943 -0.0590
vn 0.2409 -0.9701 0.0301
vn 0.3108 -0.7881 -0.5313
vn 0.1958 -0.1447 -0.9699
vn 0.8394 -0.2028 -0.5042
vn -0.2756 -0.2169 -0.9364
vn -0.5795 0.2158 -0.7859
vn -0.1104 0.0318 -0.9933
vn 0.8192 -0.5734 -0.0110
vn 0.9974 0.0522 0.0493
vn 0.8095 -0.0001 -0.5871
vn 0.4727 -0.1322 -0.8712
vn 0.3372 0.0090 -0.9414
vn 0.2893 0.2558 -0.9224
vn -0.3456 0.2355 -0.9083
vn -0.6515 0.2975 -0.6978
vn -0.8522 0.4706 -0.2286
vn -0.9870 0.0877 -0.1343
vn 0.1371 0.3768 -0.9161
vn -0.0877 0.6369 -0.7659
vn 0.3272 0.6976 -0.6373
vn -0.4917 0.7594 -0.4261
vn -0.3032 0.8909 0.3381
vn -0.6727 0.7289 0.1270
vn -0.8921 0.2698 0.3624
vn 0.1721 0.9830 0.0631
vn -0.0599 0.9512 -0.3027
vn 0.4387 0.8412 -0.3160
vn 0.8432 0.5339 0.0631
vn 0.5019 0.8631 0.0564
vn 0.6129 0.4873 0.6220
vn 0.1897 0.7168 0.6709
vn 0.0409 0.4147 0.9090
vn -0.2329 0.5843 0.7774
vn -0.4537 0.2971 0.8402
vn 0.9754 0.1582 -0.1532
vn 0.6936 0.3873 -0.6073
vn -0.1529 0.1246 0.9803
vn 0.0980 0.1096 0.9891
vn 0.4854 0.2398 0.8407
vn 0.8760 0.0670 0.4776
vn 0.9709 0.1504 0.1864
vn 0.8605 0.0624 0.5055
vn 0.7117 -0.2489 0.6569
vn 0.3635 -0.2289 0.9030
vn 0.4232 -0.2185 0.8793
vn -0.0742 -0.4526 0.8886
vn -0.0564 0.0583 0.9967
vn -0.5225 -0.3544 0.7754
vn -0.4243 -0.0191 0.9053
vn -0.5798 0.1581 0.7992
vn -0.6320 0.4218 0.6500
vn -0.3328 -0.7169 0.6125
vn 0.1591 -0.5940 0.7885
vn 0.2749 -0.8724 0.4041
vn -0.0696 -0.9638 0.2572
vn 0.7269 -0.2324 0.6462
vn -0.8572 0.0941 0.5062
vn -0.5853 0.1751 -0.7917
vn -0.7062 0.3659 -0.6061
vn -0.5051 0.8434 -0.1832
vn -0.3397 0.2707 -0.9007
vn 0.1780 0.9816 -0.0692
vn -0.0251 0.9408 0.3379
vn 0.5324 0.8284 0.1738
vn 0.5022 0.8524 0.1457
vn -0.7842 0.5966 -0.1704
vn 0.2105 0.9776 -0.0046
vn -0.9196 0.0045 0.3927
vn -0.7393 0.5750 0.3503
vn -0.0059 0.8586 0.5125
vn -0.4232 0.8801 -0.2152
vn 0.5492 0.5225 0.6522
vn -0.1915 0.9738 -0.1225
vn -0.7040 0.6924 0.1579
vn -0.2141 0.9628 0.1645
vn 0.0136 0.9930 -0.1176
vn 0.6052 0.7483 0.2715
vn -0.0026 0.9989 -0.0462
vn 0.4359 0.6511 -0.6213
vn 0.1322 0.9695 0.2063
vn 0.0309 0.9598 -0.2788
vn -0.0375 0.9991 0.0177
vn -0.4896 0.3425 0.8018
vn -0.7423 0.1721 0.6476
vn 0.2031 0.4307 0.8793
vn 0.6278 -0.1182 0.7693
vn 0.7918 0.5901 0.1572
vn 0.9622 0.2584 -0.0858
vn 0.7331 0.5603 -0.3854
vn 0.1079 0.7621 -0.6383
vn 0.3618 0.2925 -0.8852
vn 0.5290 0.3165 -0.7873
vn 0.6796 -0.6044 0.4156
vn -0.0013 -0.5942 0.8043
vn -0.1353 -0.7270 0.6731
vn -0.6868 -0.5342 0.4928
vn -0.5493 -0.7766 0.3085
vn 0.0822 -0.9662 0.2444
vn 0.6682 -0.7073 -0.2307
vn -0.1616 -0.9034 -0.3970
vn 0.2612 -0.5463 -0.7958
vn 0.4654 -0.3115 -0.8285
vn -0.4509 -0.4651 -0.7618
vn -0.6877 -0.6754 -0.2662
usemtl COM_Deco_Out
s 1
f 58/1/1 1/2/2 2/3/3
f 1/2/2 3/4/4 2/3/3
f 4/5/5 2/3/3 3/4/4
f 58/1/1 2/3/3 4/5/5
f 58/1/1 4/5/5 5/6/6
f 5/6/6 4/5/5 6/7/7
f 6/7/7 65/8/8 5/6/6
f 7/9/9 65/8/8 6/7/7
f 64/10/10 65/8/8 7/9/9
f 8/11/11 64/10/10 7/9/9
f 9/12/12 8/11/11 7/9/9
f 10/13/13 11/14/14 9/12/12
f 10/13/13 9/12/12 7/9/9
f 12/15/15 10/13/13 7/9/9
f 7/9/9 6/7/7 12/15/15
f 13/16/16 12/15/15 6/7/7
f 6/7/7 4/5/5 13/16/16
f 4/5/5 3/4/4 13/16/16
f 13/16/16 14/17/17 12/15/15
f 8/11/11 9/12/12 15/18/18
f 11/14/14 15/18/18 9/12/12
f 11/14/14 16/19/19 15/18/18
f 11/14/14 17/20/20 16/19/19
f 17/20/20 11/14/14 10/13/13
f 18/21/21 17/20/20 10/13/13
f 10/13/13 12/15/15 18/21/21
f 18/21/21 12/15/15 19/22/22
f 12/15/15 14/17/17 19/22/22
f 20/23/23 19/22/22 14/17/17
f 17/20/20 18/21/21 19/22/22
f 20/23/23 17/20/20 19/22/22
f 13/16/16 20/23/23 14/17/17
f 21/24/24 20/23/23 13/16/16
f 3/4/4 21/24/24 13/16/16
f 22/25/25 21/24/24 3/4/4
f 3/4/4 23/26/26 22/25/25
f 23/26/26 3/4/4 24/27/27
f 25/28/28 20/23/23 21/24/24
f 21/24/24 22/25/25 25/28/28
f 25/28/28 26/29/29 27/30/30
f 26/29/29 25/28/28 22/25/25
f 28/31/31 26/29/29 22/25/25
f 23/26/26 28/31/31 22/25/25
f 23/26/26 29/32/32 28/31/31
f 23/26/26 114/33/33 29/32/32
f 30/34/34 114/33/33 23/26/26
f 30/34/34 23/26/26 24/27/27
f 1/2/2 30/34/34 24/27/27
f 1/2/2 24/27/27 3/4/4
f 31/35/35 32/36/36 29/32/32
f 28/31/31 29/32/32 32/36/36
f 26/29/29 28/31/31 32/36/36
f 26/29/29 32/36/36 27/30/30
f 27/30/30 32/36/36 33/37/37
f 31/35/35 33/37/37 32/36/36
f 34/38/38 33/37/37 31/35/35
f 34/38/38 31/35/35 35/39/39
f 36/40/40 34/38/38 35/39/39
f 37/41/41 36/40/40 35/39/39
f 37/41/41 38/42/42 36/40/40
f 39/43/43 38/42/42 37/41/41
f 38/42/42 39/43/43 40/44/44
f 41/45/45 42/46/46 34/38/38
f 42/46/46 33/37/37 34/38/38
f 42/46/46 27/30/30 33/37/37
f 43/47/47 44/48/48 40/44/44
f 44/48/48 38/42/42 40/44/44
f 45/49/49 38/42/42 44/48/48
f 36/40/40 38/42/42 45/49/49
f 36/40/40 45/49/49 46/50/50
f 34/38/38 36/40/40 46/50/50
f 47/51/51 34/38/38 46/50/50
f 41/45/45 34/38/38 47/51/51
f 48/52/52 41/45/45 47/51/51
f 49/53/53 48/52/52 47/51/51
f 48/52/52 49/53/53 50/54/54
f 49/53/53 47/51/51 46/50/50
f 45/49/49 44/48/48 51/55/55
f 46/50/50 45/49/49 49/53/53
f 49/53/53 45/49/49 51/55/55
f 49/53/53 51/55/55 50/54/54
f 52/56/56 50/54/54 51/55/55
f 51/55/55 53/57/57 52/56/56
f 53/57/57 54/58/58 52/56/56
f 55/59/59 54/58/58 53/57/57
f 55/59/59 53/57/57 51/55/55
f 51/55/55 43/47/47 55/59/59
f 44/48/48 43/47/47 51/55/55
f 43/47/47 40/44/44 56/60/60
f 55/59/59 43/47/47 56/60/60
f 40/44/44 39/43/43 57/61/61
f 40/44/44 57/61/61 56/60/60
f 57/61/61 30/62/34 56/60/60
f 1/63/2 56/60/60 30/62/34
f 56/60/60 1/63/2 55/59/59
f 55/59/59 1/63/2 58/64/1
f 55/59/59 58/64/1 54/58/58
f 58/64/1 59/65/62 54/58/58
f 59/65/62 52/56/56 54/58/58
f 60/66/63 52/56/56 59/65/62
f 60/66/63 59/65/62 61/67/64
f 61/67/64 59/65/62 62/68/65
f 63/69/66 15/70/18 16/19/19
f 15/70/18 63/69/66 60/66/63
f 60/66/63 61/67/64 15/70/18
f 8/71/11 15/70/18 61/67/64
f 62/68/65 8/71/11 61/67/64
f 8/71/11 62/68/65 64/72/10
f 62/68/65 65/73/8 64/72/10
f 59/65/62 65/73/8 62/68/65
f 59/65/62 66/74/67 65/73/8
f 59/65/62 58/64/1 66/74/67
f 5/75/6 66/74/67 58/64/1
f 5/75/6 65/73/8 66/74/67
f 50/54/54 52/56/56 60/66/63
f 50/54/54 60/66/63 63/69/66
f 63/69/66 48/52/52 50/54/54
f 63/69/66 16/19/19 48/52/52
f 16/19/19 41/45/45 48/52/52
f 41/45/45 16/19/19 17/20/20
f 42/46/46 41/45/45 17/20/20
f 42/46/46 17/20/20 20/23/23
f 42/46/46 20/23/23 27/30/30
f 25/28/28 27/30/30 20/23/23
f 67/76/68 68/77/69 69/78/70
f 111/79/71 67/76/68 70/80/72
f 67/76/68 71/81/73 70/80/72
f 71/81/73 67/76/68 69/78/70
f 72/82/74 71/81/73 69/78/70
f 72/82/74 69/78/70 68/77/69
f 72/82/74 68/77/69 73/83/75
f 68/77/69 113/84/76 73/83/75
f 113/84/76 74/85/77 73/83/75
f 113/84/76 75/86/78 74/85/77
f 74/85/77 75/86/78 76/87/79
f 71/81/73 77/88/80 70/80/72
f 78/89/81 96/90/82 79/91/83
f 78/89/81 79/91/83 80/92/84
f 79/91/83 81/93/85 80/92/84
f 80/92/84 81/93/85 77/88/80
f 82/94/86 80/92/84 77/88/80
f 77/88/80 71/81/73 82/94/86
f 82/94/86 71/81/73 83/95/87
f 71/81/73 72/82/74 83/95/87
f 73/83/75 83/95/87 72/82/74
f 73/83/75 74/85/77 83/95/87
f 82/94/86 78/89/81 80/92/84
f 82/94/86 84/96/88 78/89/81
f 85/97/89 84/96/88 82/94/86
f 83/95/87 85/97/89 82/94/86
f 83/95/87 74/85/77 85/97/89
f 85/97/89 74/85/77 86/98/90
f 86/98/90 87/99/91 85/97/89
f 84/96/88 85/97/89 87/99/91
f 84/96/88 87/99/91 88/100/92
f 74/85/77 76/87/79 86/98/90
f 89/101/93 86/98/90 76/87/79
f 89/101/93 87/99/91 86/98/90
f 89/101/93 90/102/94 87/99/91
f 87/99/91 90/102/94 88/100/92
f 90/102/94 98/103/95 88/100/92
f 88/100/92 98/103/95 84/96/88
f 91/104/96 84/96/88 98/103/95
f 84/96/88 91/104/96 96/90/82
f 84/96/88 96/90/82 78/89/81
f 96/90/82 110/105/97 79/91/83
f 79/91/83 110/105/97 81/93/85
f 81/93/85 110/105/97 92/106/98
f 81/93/85 92/106/98 93/107/99
f 81/93/85 93/107/99 94/108/100
f 81/93/85 94/108/100 77/88/80
f 109/109/101 77/88/80 94/108/100
f 109/109/101 70/80/72 77/88/80
f 108/110/102 70/80/72 109/109/101
f 70/80/72 108/110/102 111/79/71
f 91/111/96 95/112/103 96/113/82
f 91/111/96 97/114/104 95/112/103
f 91/111/96 98/115/95 97/114/104
f 98/115/95 90/116/94 97/114/104
f 99/117/105 97/114/104 90/116/94
f 90/116/94 89/118/93 99/117/105
f 89/118/93 100/119/106 99/117/105
f 89/118/93 76/120/79 100/119/106
f 100/119/106 76/120/79 75/121/78
f 100/119/106 75/121/78 101/122/107
f 100/119/106 101/122/107 99/117/105
f 99/117/105 101/122/107 102/123/108
f 99/117/105 102/123/108 97/114/104
f 95/112/103 97/114/104 102/123/108
f 103/124/109 95/112/103 102/123/108
f 102/123/108 104/125/110 103/124/109
f 105/126/111 103/124/109 104/125/110
f 106/127/112 103/124/109 105/126/111
f 107/128/113 108/129/102 105/126/111
f 108/129/102 109/130/101 105/126/111
f 106/127/112 105/126/111 109/130/101
f 94/131/100 106/127/112 109/130/101
f 94/131/100 93/132/99 106/127/112
f 93/132/99 103/124/109 106/127/112
f 92/133/98 103/124/109 93/132/99
f 92/133/98 110/134/97 103/124/109
f 110/134/97 95/112/103 103/124/109
f 95/112/103 110/134/97 96/113/82
f 111/135/71 108/129/102 107/128/113
f 101/122/107 104/125/110 102/123/108
f 101/122/107 112/136/114 104/125/110
f 75/121/78 112/136/114 101/122/107
f 75/121/78 113/137/76 112/136/114
f 113/137/76 68/138/69 112/136/114
f 67/139/68 112/136/114 68/138/69
f 67/139/68 111/135/71 112/136/114
f 104/125/110 112/136/114 111/135/71
f 104/125/110 111/135/71 107/128/113
f 107/128/113 105/126/111 104/125/110
f 31/35/35 37/41/41 35/39/39
f 29/140/32 37/41/41 31/35/35
f 39/43/43 37/41/41 29/140/32
f 57/61/61 39/43/43 29/140/32
f 29/140/32 114/141/33 57/61/61
f 57/61/61 114/141/33 30/62/34
